<?xml version="1.0" standalone="no"?>
<!DOCTYPE svg PUBLIC "-//W3C//DTD SVG 1.1//EN" "http://www.w3.org/Graphics/SVG/1.1/DTD/svg11.dtd">
<svg t="1575455747152" class="icon" viewBox="0 0 1024 1024" version="1.1" xmlns="http://www.w3.org/2000/svg" p-id="2291" xmlns:xlink="http://www.w3.org/1999/xlink" width="200" height="200">
  <defs>
  <style type="text/css"></style>
  </defs>
  <path d="M810.666667 456.533333c21.333333 4.266667 34.133333 12.8 42.666666 21.333334 8.533333 12.8 12.8 21.333333 12.8 34.133333 0 8.533333-4.266667 21.333333-8.533333 29.866667-4.266667 8.533333-17.066667 17.066667-29.866667 21.333333v192c0 17.066667-4.266667 29.866667-17.066666 42.666667-8.533333 12.8-21.333333 25.6-34.133334 34.133333l-8.533333 17.066667c-29.866667 29.866667-59.733333 46.933333-102.4 59.733333s-76.8 17.066667-119.466667 17.066667c-64 0-123.733333-12.8-170.666666-38.4-46.933333-25.6-89.6-59.733333-123.733334-102.4-34.133333-42.666667-59.733333-85.333333-72.533333-132.266667-17.066667-46.933333-25.6-93.866667-25.6-136.533333 0-25.6 4.266667-51.2 8.533333-81.066667 8.533333-29.866667 17.066667-59.733333 29.866667-85.333333s29.866667-55.466667 51.2-81.066667c21.333333-25.6 42.666667-46.933333 68.266667-64 46.933333-34.133333 98.133333-59.733333 149.333333-81.066667 51.2-21.333333 102.4-29.866667 153.6-29.866666 17.066667 0 34.133333 0 55.466667 4.266666s42.666667 8.533333 64 17.066667 38.4 17.066667 55.466666 29.866667c17.066667 12.8 21.333333 25.6 21.333334 42.666666s-4.266667 29.866667-17.066667 38.4c-12.8 12.8-25.6 17.066667-42.666667 17.066667-8.533333 0-17.066667 0-29.866666-4.266667s-21.333333-4.266667-29.866667-8.533333l-38.4-12.8c-12.8-4.266667-25.6-4.266667-38.4-4.266667h-21.333333c-8.533333 0-17.066667 4.266667-21.333334 4.266667-34.133333 8.533333-68.266667 21.333333-102.4 38.4-34.133333 12.8-64 34.133333-89.6 55.466667-25.6 21.333333-51.2 51.2-68.266666 85.333333-21.333333 29.866667-29.866667 72.533333-29.866667 123.733333 0 42.666667 8.533333 81.066667 21.333333 115.2 12.8 34.133333 34.133333 68.266667 55.466667 93.866667s51.2 46.933333 81.066667 64c29.866667 17.066667 64 21.333333 98.133333 21.333333 29.866667 0 55.466667-4.266667 85.333333-17.066666 25.6-12.8 51.2-29.866667 76.8-51.2v-174.933334H512c-21.333333-4.266667-38.4-8.533333-51.2-21.333333s-17.066667-21.333333-17.066667-38.4 4.266667-25.6 17.066667-38.4c12.8-12.8 29.866667-17.066667 55.466667-17.066667H810.666667z" p-id="2292" fill="#4985fe">
  </path>
</svg>